<svg xmlns="http://www.w3.org/2000/svg" viewBox="0 0 100 100">
  <defs>
    <linearGradient id="textGrad" x1="0%" y1="0%" x2="100%" y2="100%">
      <stop offset="0%" style="stop-color:#4ade80;stop-opacity:1" />
      <stop offset="50%" style="stop-color:#22d3ee;stop-opacity:1" />
      <stop offset="100%" style="stop-color:#4ade80;stop-opacity:1" />
    </linearGradient>
    <filter id="glow">
      <feGaussianBlur stdDeviation="2" result="coloredBlur"/>
      <feMerge>
        <feMergeNode in="coloredBlur"/>
        <feMergeNode in="SourceGraphic"/>
      </feMerge>
    </filter>
  </defs>

  <!-- Letra C -->
  <path d="M 48 15 Q 28 15 17 26 Q 6 37 6 55 Q 6 73 17 84 Q 28 95 48 95 L 52 95 L 52 80 L 48 80 Q 36 80 28 72 Q 20 64 20 55 Q 20 46 28 38 Q 36 30 48 30 L 52 30 L 52 15 Z"
        fill="url(#textGrad)"
        filter="url(#glow)"
        stroke="#22d3ee"
        stroke-width="1"/>

  <!-- Letra E -->
  <path d="M 58 15 L 58 30 L 82 30 L 82 44 L 66 44 L 66 60 L 82 60 L 82 74 L 58 74 L 58 95 L 88 95 Q 94 95 94 89 L 94 21 Q 94 15 88 15 Z"
        fill="url(#textGrad)"
        filter="url(#glow)"
        stroke="#22d3ee"
        stroke-width="1"/>
</svg>